<svg xmlns="http://www.w3.org/2000/svg" viewBox="0 0 256 256">
  <defs>
    <linearGradient id="g" x1="0" y1="0" x2="1" y2="1">
      <stop offset="0%" stop-color="#4F46E5"/>
      <stop offset="100%" stop-color="#06B6D4"/>
    </linearGradient>
    <filter id="s" x="-20%" y="-20%" width="140%" height="140%">
      <feDropShadow dx="0" dy="2" stdDeviation="4" flood-opacity="0.25"/>
    </filter>
  </defs>
  <!-- Rounded square background -->
  <rect x="16" y="16" rx="48" ry="48" width="224" height="224" fill="url(#g)"/>

  <!-- Comment bubble container -->
  <g transform="translate(24,36)" filter="url(#s)">
    <path d="M32 24h144c17.7 0 32 14.3 32 32v60c0 17.7-14.3 32-32 32H96l-34 28c-4.5 3.8-10.9-.2-10-5.9l5.2-22.1H32c-17.7 0-32-14.3-32-32V56c0-17.7 14.3-32 32-32z"
          fill="#0B1221" fill-opacity="0.92"/>

    <!-- Generated comment lines (AI output) -->
    <rect x="52" y="58" width="116" height="10" rx="5" fill="#A5B4FC"/>
    <rect x="52" y="78" width="136" height="10" rx="5" fill="#C7D2FE"/>
    <rect x="52" y="98" width="96" height="10" rx="5" fill="#A5B4FC"/>

    <!-- Sparkles to indicate AI generation (no question mark) -->
    <g fill="#67E8F9" opacity="0.95">
      <path d="M0-6 L1.2-1.2 L6 0 L1.2 1.2 L0 6 L-1.2 1.2 L-6 0 L-1.2-1.2 Z" transform="translate(176,52) rotate(15)"/>
      <path d="M0-5 L1-1 L5 0 L1 1 L0 5 L-1 1 L-5 0 L-1-1 Z" transform="translate(158,112) rotate(-10)"/>
      <circle cx="168" cy="72" r="2.5"/>
      <circle cx="186" cy="92" r="2"/>
    </g>
  </g>
</svg>
